<?xml version="1.0" standalone="no"?><!DOCTYPE svg PUBLIC "-//W3C//DTD SVG 1.1//EN" "http://www.w3.org/Graphics/SVG/1.1/DTD/svg11.dtd"><svg t="1624208642535" class="icon" viewBox="0 0 1024 1024" version="1.1" xmlns="http://www.w3.org/2000/svg" p-id="861" xmlns:xlink="http://www.w3.org/1999/xlink" width="200" height="200"><defs><style type="text/css"></style></defs><path d="M549.12 426.24c46.08-33.28 75.52-87.04 75.52-148.48 0-101.12-81.92-183.04-183.04-183.04s-183.04 81.92-183.04 183.04c0 61.44 29.44 115.2 75.52 148.48-122.88 44.8-212.48 163.84-212.48 302.08 0 37.12 19.2 89.6 113.92 124.16 55.04 20.48 129.28 32 207.36 32 148.48 0 321.28-40.96 321.28-154.88-1.28-139.52-89.6-258.56-215.04-303.36z" fill="#d81e06" p-id="862"></path><path d="M811.52 389.12c25.6-28.16 42.24-65.28 42.24-106.24 0-87.04-70.4-156.16-156.16-156.16-23.04 0-44.8 5.12-64 14.08 15.36 20.48 26.88 43.52 34.56 69.12 8.96-3.84 19.2-6.4 29.44-6.4 43.52 0 79.36 35.84 79.36 79.36s-35.84 79.36-79.36 79.36c-11.52 0-23.04-2.56-33.28-7.68-6.4 19.2-16.64 38.4-28.16 55.04 15.36 8.96 29.44 19.2 42.24 29.44 6.4 0 12.8-1.28 17.92-1.28 106.24 0 192 85.76 192 192 0 14.08-28.16 33.28-78.08 44.8 2.56 16.64 3.84 34.56 3.84 52.48 0 8.96-1.28 17.92-2.56 26.88 83.2-16.64 152.32-55.04 152.32-122.88 1.28-106.24-61.44-198.4-152.32-241.92z" fill="#d81e06" p-id="863"></path></svg>