<?xml version="1.0" standalone="no"?><!DOCTYPE svg PUBLIC "-//W3C//DTD SVG 1.1//EN" "http://www.w3.org/Graphics/SVG/1.1/DTD/svg11.dtd"><svg t="1624352121460" class="icon" viewBox="0 0 1024 1024" version="1.1" xmlns="http://www.w3.org/2000/svg" p-id="1312" xmlns:xlink="http://www.w3.org/1999/xlink" width="200" height="200"><defs><style type="text/css"></style></defs><path d="M809.55 656a152.49 152.49 0 0 0-88.37 28L405.87 512.35 721.22 340a152.49 152.49 0 0 0 88.33 28.07c84.56 0 153.35-68.79 153.35-153.34S894.11 61.36 809.55 61.36s-153.34 68.79-153.34 153.35a152.39 152.39 0 0 0 17.66 71.38L358.08 458.7c-21.82-58.14-78-99.64-143.63-99.64-84.56 0-153.35 68.79-153.35 153.35s68.79 153.34 153.35 153.34c65.69 0 121.86-41.53 143.65-99.71L673.84 738a152.39 152.39 0 0 0-17.63 71.32c0 84.56 68.79 153.35 153.34 153.35S962.9 893.85 962.9 809.29 894.11 656 809.55 656z m0-524.59a83.35 83.35 0 1 1-83.34 83.35 83.44 83.44 0 0 1 83.34-83.4z m-595.1 464.34a83.35 83.35 0 1 1 83.34-83.34 83.44 83.44 0 0 1-83.34 83.34z m595.1 296.89a83.35 83.35 0 1 1 83.35-83.35 83.44 83.44 0 0 1-83.35 83.35z" fill="#ffffff" p-id="1313"></path></svg>