<?xml version="1.0" standalone="no"?><!DOCTYPE svg PUBLIC "-//W3C//DTD SVG 1.1//EN" "http://www.w3.org/Graphics/SVG/1.1/DTD/svg11.dtd"><svg t="1624261555582" class="icon" viewBox="0 0 1024 1024" version="1.1" xmlns="http://www.w3.org/2000/svg" p-id="822" xmlns:xlink="http://www.w3.org/1999/xlink" width="200" height="200"><defs><style type="text/css"></style></defs><path d="M713.55120878 902.2882147H247.32043104c-55.63131508 0-100.89343614-45.26212107-100.89343615-100.9081651V221.23542734c0-55.61658611 45.26212107-100.87870717 100.89343615-100.87870718h466.23077774c55.64604404 0 100.9081651 45.26212107 100.90816511 100.87870718v175.77551341c0 23.36014448-18.94145385 42.31632729-42.31632731 42.3163273s-42.31632729-18.95618282-42.31632732-42.3163273V221.23542734c0-8.95521301-7.30556852-16.24605257-16.27551048-16.24605257H247.32043104c-8.96994199 0-16.26078154 7.30556852-16.26078153 16.24605257v580.14462226c0 8.98467097 7.30556852 16.2755105 16.26078153 16.27551052h466.23077774c8.98467097 0 16.2755105-7.30556852 16.27551048-16.27551052 0-23.36014448 18.94145385-43.27371027 42.31632732-43.27371026s42.31632729 18.01352881 42.31632731 41.37367329v1.90003697c-0.01472898 55.64604404-45.27685003 100.9081651-100.90816511 100.9081651z" fill="#d81e06" p-id="823"></path><path d="M638.43346801 374.22522605H317.2977617c-23.37487345 0-42.31632729-18.95618282-42.3163273-42.31632731 0-23.36014448 18.94145385-42.31632729 42.3163273-42.31632732h321.13570631c23.37487345 0 42.31632729 18.95618282 42.3163273 42.31632732-0.01472898 23.36014448-18.94145385 42.31632729-42.3163273 42.31632731zM507.69914112 521.20560548H317.2977617c-23.37487345 0-42.31632729-18.95618282-42.3163273-42.3163273s18.94145385-42.31632729 42.3163273-42.3163273h190.40137942c23.37487345 0 42.31632729 18.95618282 42.31632731 42.3163273s-18.94145385 42.31632729-42.31632731 42.3163273zM570.75385646 792.83724771c-0.48605597 0-0.95738297 0-1.44343893-0.02945794-11.50332462-0.38295318-22.34384564-5.44971845-30.03236734-13.99252034l-122.45664644-136.33133502c-15.61270692-17.38018317-14.18399693-44.12799045 3.19618622-59.74069736 17.4096411-15.59797794 44.14271943-14.18399693 59.74069738 3.22564416l93.05762475 103.57410844 234.52936985-227.69512835c16.77629543-16.2755105 43.56828965-15.89255731 59.82907119 0.88373813 16.2755105 16.77629543 15.87782834 43.55356068-0.88373813 59.82907118L600.22652299 780.89205403a42.32221889 42.32221889 0 0 1-29.47266653 11.94519368z" fill="#d81e06" p-id="824"></path></svg>