<?xml version="1.0" standalone="no"?><!DOCTYPE svg PUBLIC "-//W3C//DTD SVG 1.1//EN" "http://www.w3.org/Graphics/SVG/1.1/DTD/svg11.dtd"><svg t="1624241526417" class="icon" viewBox="0 0 1024 1024" version="1.1" xmlns="http://www.w3.org/2000/svg" p-id="895" xmlns:xlink="http://www.w3.org/1999/xlink" width="200" height="200"><defs><style type="text/css"></style></defs><path d="M794.1 370.9c-0.8 0-1.6 0-2.3 0.1-2.1-0.3-4.2-0.5-6.4-0.6l-77.2-0.5v-110c0-107.7-87.6-195.2-195.2-195.2s-195.2 87.6-195.2 195.2v112.3l-78-0.5c-2.6-0.5-5.3-0.8-8-0.8-22.1 0-40 17.9-40 40v94.2c0 43.2 8.5 85.2 25.4 124.8 16.2 38.2 39.4 72.5 69 102.1 29.5 29.5 63.9 52.7 102.1 69 27.2 11.6 55.6 19.2 84.6 22.9l-0.3 54.4H256.3c-22.1 0-40 17.9-40 40s17.9 40 40 40h247c2.8 0.7 5.8 1 8.8 1h0.2c3.1 0 6.1-0.4 9-1h247c22.1 0 40-17.9 40-40s-17.9-40-40-40H552.5l0.3-54.4c29.2-3.6 57.7-11.3 85-22.9 38.2-16.2 72.5-39.4 102.1-69 29.5-29.5 52.7-63.9 69-102.1 16.8-39.6 25.4-81.6 25.4-124.8v-94.2c-0.2-22.1-18.1-40-40.2-40zM397.6 259.8c0-63.5 51.7-115.2 115.2-115.2S628 196.3 628 259.8V484c0 63.5-51.7 115.2-115.2 115.2S397.6 547.5 397.6 484V259.8z m115.2 486.5c-133 0-241.2-108.2-241.2-241.2v-53.2l46 0.3v32c0 107.7 87.6 195.2 195.2 195.2S708 591.8 708 484.2V450l46 0.3v54.9c0.1 132.9-108.1 241.1-241.2 241.1z" p-id="896" fill="#515151"></path></svg>